<?xml version="1.0" encoding="utf-8"?>
<!-- Generator: Adobe Illustrator 28.1.0, SVG Export Plug-In . SVG Version: 6.00 Build 0)  -->
<svg version="1.1" id="Layer_1" xmlns="http://www.w3.org/2000/svg" xmlns:xlink="http://www.w3.org/1999/xlink" x="0px" y="0px"
	 viewBox="0 0 500 500" style="enable-background:new 0 0 500 500;" xml:space="preserve">
<style type="text/css">
	.st0{fill:none;}
	.st1{fill:#C6F6D5;}
	.st2{fill:#FFFFFF;}
	.st3{fill:none;stroke:#172B4D;stroke-width:41.6667;stroke-linecap:round;stroke-linejoin:round;stroke-miterlimit:83.3333;}
</style>
<path class="st0" d="M0,0h500v500H0V0z"/>
<g id="XMLID_00000031178251118673429560000013675787099794312070_">
	<g>
		<g id="XMLID_00000136369961257666582290000001249072534347216575_">
			<g>
				<polygon class="st1" points="340,311.7 375,416.7 125,416.7 160,311.7 162.5,312.5 337.5,312.5 				"/>
				<polygon class="st2" points="305.4,207.9 340,311.7 337.5,312.5 162.5,312.5 160,311.7 194.6,207.9 195.8,208.3 304.2,208.3 
									"/>
				<polygon class="st1" points="270.8,104.2 305.4,207.9 304.2,208.3 195.8,208.3 194.6,207.9 229.2,104.2 				"/>
			</g>
			<g>
				<polyline class="st3" points="83.3,416.7 125,416.7 375,416.7 416.7,416.7 				"/>
				<line class="st3" x1="195.8" y1="208.3" x2="304.2" y2="208.3"/>
				<line class="st3" x1="162.5" y1="312.5" x2="337.5" y2="312.5"/>
				<polyline class="st3" points="125,416.7 160,311.7 194.6,207.9 229.2,104.2 270.8,104.2 305.4,207.9 340,311.7 375,416.7 				
					"/>
			</g>
		</g>
	</g>
</g>
</svg>
