<?xml version="1.0" encoding="utf-8"?>
<!-- Generator: Adobe Illustrator 28.1.0, SVG Export Plug-In . SVG Version: 6.00 Build 0)  -->
<svg version="1.1" id="Layer_1" xmlns="http://www.w3.org/2000/svg" xmlns:xlink="http://www.w3.org/1999/xlink" x="0px" y="0px"
	 viewBox="0 0 1887.7 500" style="enable-background:new 0 0 1887.7 500;" xml:space="preserve">
<style type="text/css">
	.st0{fill:none;}
	.st1{fill:#9AE6B4;}
	.st2{fill:#FFFFFF;}
	.st3{fill:none;stroke:#172B4D;stroke-width:41.6667;stroke-linecap:round;stroke-linejoin:round;stroke-miterlimit:83.3333;}
	.st4{fill:#172B4D;}
</style>
<path class="st0" d="M0,0h500v500H0V0z"/>
<g id="XMLID_00000031178251118673429560000013675787099794312070_">
	<g>
		<g id="XMLID_00000136369961257666582290000001249072534347216575_">
			<g>
				<polygon class="st1" points="340,311.7 375,416.7 125,416.7 160,311.7 162.5,312.5 337.5,312.5 				"/>
				<polygon class="st2" points="305.4,207.9 340,311.7 337.5,312.5 162.5,312.5 160,311.7 194.6,207.9 195.8,208.3 304.2,208.3 
									"/>
				<polygon class="st1" points="270.8,104.2 305.4,207.9 304.2,208.3 195.8,208.3 194.6,207.9 229.2,104.2 				"/>
			</g>
			<g>
				<polyline class="st3" points="83.3,416.7 125,416.7 375,416.7 416.7,416.7 				"/>
				<line class="st3" x1="195.8" y1="208.3" x2="304.2" y2="208.3"/>
				<line class="st3" x1="162.5" y1="312.5" x2="337.5" y2="312.5"/>
				<polyline class="st3" points="125,416.7 160,311.7 194.6,207.9 229.2,104.2 270.8,104.2 305.4,207.9 340,311.7 375,416.7 				
					"/>
			</g>
		</g>
	</g>
</g>
<g>
	<g>
		<path class="st4" d="M539.4,357l50.9-176.2h40.2L681.3,357H646l-34.5-133.1h-2.2L574.8,357H539.4z M565.1,323.6v-30.3h89.3v30.3
			H565.1z"/>
		<path class="st4" d="M691.1,280.4v-28.8h125.8v28.8H691.1z M731.1,357V236.6c0-45.5,22-68.2,65.9-68.2c10.2,0,20,0.8,29.4,2.5
			l-3.2,31.1c-5.5-0.7-10.4-1.1-14.7-1.4c-4.3-0.2-8.3-0.4-12.2-0.4c-21.1,0-31.6,11.7-31.6,35.1V357H731.1z"/>
		<path class="st4" d="M840,280.4v-28.8h125.8v28.8H840z M880,357V236.6c0-45.5,22-68.2,65.9-68.2c10.2,0,20,0.8,29.4,2.5L972,202
			c-5.5-0.7-10.4-1.1-14.7-1.4c-4.3-0.2-8.3-0.4-12.2-0.4c-21.1,0-31.6,11.7-31.6,35.1V357H880z"/>
		<path class="st4" d="M1000.3,357v-31h51.1v31H1000.3z M1007.8,256.5v-31h74.7v31H1007.8z M1064.2,207.7c-6.4,0-11.5-2-15.5-6
			s-6-9.1-6-15.5c0-6.4,2-11.5,6-15.5c4-4,9.1-6,15.5-6c6.4,0,11.5,2,15.5,6c4,4,6,9.1,6,15.5c0,6.4-2,11.5-6,15.5
			C1075.7,205.7,1070.6,207.7,1064.2,207.7z M1049,357V232.9h33.5V357H1049z M1080,357v-31h41.4v31H1080z"/>
		<path class="st4" d="M1221.3,359.5c-23.9,0-42.4-5.9-55.5-17.7c-13.1-11.8-19.6-28.7-19.6-50.8c0-21.5,6-38.2,17.9-50.1
			c11.9-11.9,28.9-17.9,51-17.9c13.6,0,25.2,2.6,34.9,7.9c9.7,5.3,16.6,12.8,20.7,22.5l-24.3,19.4c-3.6-5.7-8.2-10.1-13.8-13.2
			s-11.7-4.7-18.4-4.7c-10.2,0-18.1,3-23.8,9.1c-5.7,6-8.5,14.6-8.5,25.8c0,12.3,3.7,21.7,11,28.2c7.4,6.5,17.8,9.7,31.4,9.7
			c6,0,11.9-0.3,17.8-0.9c5.9-0.6,11.7-1.4,17.3-2.4l3.5,31.4c-6.7,1.5-13.6,2.5-20.7,3C1235,359.2,1228.1,359.5,1221.3,359.5z"/>
		<path class="st4" d="M1354.8,359.5c-18.9,0-33.6-6-44-17.9c-10.4-11.9-15.6-28.7-15.6-50.4c0-21.8,5.2-38.6,15.6-50.4
			c10.4-11.9,25.1-17.8,44-17.8c18.9,0,33.6,5.9,44,17.8c10.4,11.9,15.6,28.7,15.6,50.4c0,21.7-5.2,38.5-15.6,50.4
			C1388.4,353.5,1373.7,359.5,1354.8,359.5z M1354.9,327.6c7.6,0,13.5-3.2,17.7-9.5c4.2-6.3,6.3-15.3,6.3-26.9
			c0-11.7-2.1-20.6-6.3-26.9c-4.2-6.3-10.1-9.4-17.8-9.4c-7.6,0-13.5,3.1-17.7,9.4c-4.2,6.3-6.3,15.3-6.3,26.9
			c0,11.6,2.1,20.5,6.3,26.9C1341.2,324.4,1347.2,327.6,1354.9,327.6z"/>
		<path class="st4" d="M1447.9,357V225.5h30l3.6,27.8V357H1447.9z M1525.7,357v-77.3c0-7.9-1.6-14.1-4.9-18.4
			c-3.3-4.3-7.9-6.5-14-6.5c-16.9,0-25.3,12.2-25.3,36.5l-7.7-42.1h10.9c1.2-8.8,4.3-15.4,9.1-19.8c4.8-4.3,12.1-6.5,21.8-6.5
			c13.9,0,24.6,4.2,32.3,12.7c7.6,8.4,11.4,20.3,11.4,35.7V357H1525.7z"/>
		<path class="st4" d="M1664.2,359.5c-22.7,0-40.3-5.9-52.7-17.7c-12.4-11.8-18.6-28.7-18.6-50.8c0-21.5,5.3-38.2,15.8-50.1
			c10.5-11.9,25.4-17.9,44.6-17.9c18.8,0,33.3,5.5,43.5,16.5c10.3,11,15.4,27,15.4,48c0,6-0.2,11.6-0.7,17h-96.5v-23.3h64.3
			c0-8.8-2.3-15.6-6.8-20.3c-4.5-4.7-10.8-7.1-18.9-7.1c-8.8,0-15.6,3.1-20.4,9.4c-4.8,6.2-7.3,15.1-7.3,26.6
			c0,12.4,3.6,21.8,10.7,28.3c7.2,6.5,17.3,9.7,30.6,9.7c6,0,11.8-0.3,17.6-0.9c5.8-0.6,11.7-1.5,17.7-2.5l3.2,31.8
			c-8.4,1.5-16.1,2.4-23.1,2.9C1675.7,359.3,1669.6,359.5,1664.2,359.5z"/>
	</g>
</g>
</svg>
